<mxfile host="app.diagrams.net" modified="2024-02-26T05:44:35.365Z" agent="Mozilla/5.0 (Windows NT 10.0; Win64; x64; rv:122.0) Gecko/20100101 Firefox/122.0" version="23.1.6" etag="noE4XFtnq2ntBJhh2sHv" type="github">
  <diagram name="Page-1" id="uprE5jeDA3EvAK1ppm78">
    <mxGraphModel>
      <root>
        <mxCell id="0" />
        <mxCell id="1" parent="0" />
      </root>
    </mxGraphModel>
  </diagram>
</mxfile>
